<svg xmlns="http://www.w3.org/2000/svg" width="152" height="32" viewBox="0 0 152 32" fill="none" xmlns:xlink="http://www.w3.org/1999/xlink">
  
  
  <g transform="translate(7, 0.5)">
    <path d="M 13.085 23.204 L 5.118 18.456 L 13.17 12.07 L 13.085 23.204 Z M 11.216 6.44 L 0 13 L 0 0 L 11.216 6.44 Z" fill="#574BFF" transform="translate(0, 7.798)"></path>
    <path d="M 26.17 15.406 L 13.085 23.205 L 13.131 17.769 L 17.424 15.222 L 17.424 8.691 L 21.64 5.364 C 22.671 4.761 23.018 3.436 22.415 2.405 C 22.385 2.353 22.351 2.304 22.316 2.255 L 26.17 0 L 26.17 15.406 Z" fill="#574BFF" transform="translate(0, 7.798)"></path>
    <path d="M 26.171 7.798 L 22.316 10.054 C 21.677 9.141 20.435 8.856 19.456 9.429 L 15.534 11.722 L 9.477 8.081 L 5.065 10.703 L 0 7.798 L 13.085 0 L 26.171 7.798 Z" fill="#9A93FF"></path>
  </g>
  
  <text x="40" y="21" font-family="Helvetica Neue, Inter, sans-serif" font-weight="500" font-size="14" letter-spacing="-0.1" fill="#131219">PackYourTour</text>
</svg>